<mxfile host="app.diagrams.net" agent="Mozilla/5.0 (Windows NT 10.0; Win64; x64) AppleWebKit/537.36 (KHTML, like Gecko) Chrome/132.0.0.0 Safari/537.36 OPR/117.0.0.0 (Edition Yx GX)" version="26.2.14">
  <diagram name="Страница — 1" id="4R6z745rkO0ihsjHNEN-">
    <mxGraphModel dx="618" dy="962" grid="1" gridSize="10" guides="1" tooltips="1" connect="1" arrows="1" fold="1" page="1" pageScale="1" pageWidth="827" pageHeight="1169" math="0" shadow="0">
      <root>
        <mxCell id="0" />
        <mxCell id="1" parent="0" />
        <mxCell id="K49-O-8aMLTQly8U9h3_-4" style="edgeStyle=orthogonalEdgeStyle;rounded=0;orthogonalLoop=1;jettySize=auto;html=1;entryX=0.5;entryY=0;entryDx=0;entryDy=0;" edge="1" parent="1" source="K49-O-8aMLTQly8U9h3_-1" target="K49-O-8aMLTQly8U9h3_-3">
          <mxGeometry relative="1" as="geometry" />
        </mxCell>
        <mxCell id="K49-O-8aMLTQly8U9h3_-1" value="" style="ellipse;html=1;shape=startState;fillColor=#000000;strokeColor=#ff0000;" vertex="1" parent="1">
          <mxGeometry x="260" y="330" width="30" height="30" as="geometry" />
        </mxCell>
        <mxCell id="K49-O-8aMLTQly8U9h3_-6" style="edgeStyle=orthogonalEdgeStyle;rounded=0;orthogonalLoop=1;jettySize=auto;html=1;entryX=0.5;entryY=0;entryDx=0;entryDy=0;" edge="1" parent="1" source="K49-O-8aMLTQly8U9h3_-3" target="K49-O-8aMLTQly8U9h3_-5">
          <mxGeometry relative="1" as="geometry" />
        </mxCell>
        <mxCell id="K49-O-8aMLTQly8U9h3_-3" value="Проектирование" style="rounded=1;whiteSpace=wrap;html=1;" vertex="1" parent="1">
          <mxGeometry x="215" y="410" width="120" height="60" as="geometry" />
        </mxCell>
        <mxCell id="K49-O-8aMLTQly8U9h3_-8" style="edgeStyle=orthogonalEdgeStyle;rounded=0;orthogonalLoop=1;jettySize=auto;html=1;entryX=0;entryY=0.5;entryDx=0;entryDy=0;" edge="1" parent="1" source="K49-O-8aMLTQly8U9h3_-5" target="K49-O-8aMLTQly8U9h3_-7">
          <mxGeometry relative="1" as="geometry" />
        </mxCell>
        <mxCell id="K49-O-8aMLTQly8U9h3_-11" style="edgeStyle=orthogonalEdgeStyle;rounded=0;orthogonalLoop=1;jettySize=auto;html=1;entryX=0.5;entryY=0;entryDx=0;entryDy=0;" edge="1" parent="1" source="K49-O-8aMLTQly8U9h3_-5" target="K49-O-8aMLTQly8U9h3_-10">
          <mxGeometry relative="1" as="geometry" />
        </mxCell>
        <mxCell id="K49-O-8aMLTQly8U9h3_-5" value="Планирование" style="rounded=1;whiteSpace=wrap;html=1;" vertex="1" parent="1">
          <mxGeometry x="215" y="520" width="120" height="60" as="geometry" />
        </mxCell>
        <mxCell id="K49-O-8aMLTQly8U9h3_-9" style="edgeStyle=orthogonalEdgeStyle;rounded=0;orthogonalLoop=1;jettySize=auto;html=1;entryX=1;entryY=0.5;entryDx=0;entryDy=0;" edge="1" parent="1" source="K49-O-8aMLTQly8U9h3_-7" target="K49-O-8aMLTQly8U9h3_-3">
          <mxGeometry relative="1" as="geometry">
            <Array as="points">
              <mxPoint x="440" y="440" />
            </Array>
          </mxGeometry>
        </mxCell>
        <mxCell id="K49-O-8aMLTQly8U9h3_-7" value="Проистановлена" style="rounded=1;whiteSpace=wrap;html=1;" vertex="1" parent="1">
          <mxGeometry x="370" y="520" width="120" height="60" as="geometry" />
        </mxCell>
        <mxCell id="K49-O-8aMLTQly8U9h3_-13" style="edgeStyle=orthogonalEdgeStyle;rounded=0;orthogonalLoop=1;jettySize=auto;html=1;entryX=0.5;entryY=0;entryDx=0;entryDy=0;" edge="1" parent="1" source="K49-O-8aMLTQly8U9h3_-10" target="K49-O-8aMLTQly8U9h3_-12">
          <mxGeometry relative="1" as="geometry" />
        </mxCell>
        <mxCell id="K49-O-8aMLTQly8U9h3_-10" value="Строительство" style="rounded=1;whiteSpace=wrap;html=1;" vertex="1" parent="1">
          <mxGeometry x="215" y="630" width="120" height="60" as="geometry" />
        </mxCell>
        <mxCell id="K49-O-8aMLTQly8U9h3_-15" style="edgeStyle=orthogonalEdgeStyle;rounded=0;orthogonalLoop=1;jettySize=auto;html=1;entryX=0;entryY=0.5;entryDx=0;entryDy=0;" edge="1" parent="1" source="K49-O-8aMLTQly8U9h3_-12" target="K49-O-8aMLTQly8U9h3_-14">
          <mxGeometry relative="1" as="geometry" />
        </mxCell>
        <mxCell id="K49-O-8aMLTQly8U9h3_-18" style="edgeStyle=orthogonalEdgeStyle;rounded=0;orthogonalLoop=1;jettySize=auto;html=1;entryX=0.5;entryY=0;entryDx=0;entryDy=0;" edge="1" parent="1" source="K49-O-8aMLTQly8U9h3_-12" target="K49-O-8aMLTQly8U9h3_-17">
          <mxGeometry relative="1" as="geometry" />
        </mxCell>
        <mxCell id="K49-O-8aMLTQly8U9h3_-12" value="Контроль качества" style="rounded=1;whiteSpace=wrap;html=1;" vertex="1" parent="1">
          <mxGeometry x="215" y="730" width="120" height="60" as="geometry" />
        </mxCell>
        <mxCell id="K49-O-8aMLTQly8U9h3_-16" style="edgeStyle=orthogonalEdgeStyle;rounded=0;orthogonalLoop=1;jettySize=auto;html=1;entryX=1;entryY=0.5;entryDx=0;entryDy=0;" edge="1" parent="1" source="K49-O-8aMLTQly8U9h3_-14" target="K49-O-8aMLTQly8U9h3_-10">
          <mxGeometry relative="1" as="geometry">
            <Array as="points">
              <mxPoint x="430" y="660" />
            </Array>
          </mxGeometry>
        </mxCell>
        <mxCell id="K49-O-8aMLTQly8U9h3_-14" value="Доработка" style="rounded=1;whiteSpace=wrap;html=1;" vertex="1" parent="1">
          <mxGeometry x="370" y="730" width="120" height="60" as="geometry" />
        </mxCell>
        <mxCell id="K49-O-8aMLTQly8U9h3_-20" style="edgeStyle=orthogonalEdgeStyle;rounded=0;orthogonalLoop=1;jettySize=auto;html=1;entryX=0.5;entryY=0;entryDx=0;entryDy=0;" edge="1" parent="1" source="K49-O-8aMLTQly8U9h3_-17">
          <mxGeometry relative="1" as="geometry">
            <mxPoint x="275" y="930" as="targetPoint" />
          </mxGeometry>
        </mxCell>
        <mxCell id="K49-O-8aMLTQly8U9h3_-22" value="Сдача обьекта" style="edgeLabel;html=1;align=center;verticalAlign=middle;resizable=0;points=[];" vertex="1" connectable="0" parent="K49-O-8aMLTQly8U9h3_-20">
          <mxGeometry x="-0.0609" relative="1" as="geometry">
            <mxPoint x="45" as="offset" />
          </mxGeometry>
        </mxCell>
        <mxCell id="K49-O-8aMLTQly8U9h3_-17" value="Сдача обьектов" style="rounded=1;whiteSpace=wrap;html=1;" vertex="1" parent="1">
          <mxGeometry x="215" y="830" width="120" height="60" as="geometry" />
        </mxCell>
        <mxCell id="K49-O-8aMLTQly8U9h3_-21" value="" style="ellipse;html=1;shape=endState;fillColor=#000000;strokeColor=#ff0000;" vertex="1" parent="1">
          <mxGeometry x="260" y="930" width="30" height="30" as="geometry" />
        </mxCell>
      </root>
    </mxGraphModel>
  </diagram>
</mxfile>
